STARTFONT 2.1
FONT -Monotype-Arial Narrow-Regular-I-Normal--12-120-75-75-P-54-iso8859-9
SIZE 12 75 75
FONTBOUNDINGBOX 14 16 -3 -4

STARTPROPERTIES 24
FOUNDRY "Monotype"
FAMILY_NAME "Arial Narrow"
WEIGHT_NAME "Regular"
SLANT "I"
SETWIDTH_NAME "Normal"
ADD_STYLE_NAME ""
PIXEL_SIZE 12
POINT_SIZE 120
RESOLUTION_X 75
RESOLUTION_Y 75
SPACING "P"
AVERAGE_WIDTH 54
CHARSET_REGISTRY "iso8859"
CHARSET_ENCODING "9"
FACE_NAME "Arial Narrow it ISO Latin5"
_DEC_DEVICE_FONTNAMES "PS=arialnarrow-italic-lat5"
COPYRIGHT "Copyright (c) 1994 Monotype Typography Ltd."
CAP_HEIGHT 11
X_HEIGHT 8
WEIGHT 10
QUAD_WIDTH 6
DEFAULT_CHAR 160
FONT_DESCENT 4
FONT_ASCENT 12
ENDPROPERTIES

CHARS 191

STARTCHAR space
ENCODING 32
SWIDTH 228 0
DWIDTH 3 0
BBX 0 0 0 0
BITMAP
ENDCHAR

STARTCHAR exclam
ENCODING 33
SWIDTH 228 0
DWIDTH 3 0
BBX 3 9 1 0
BITMAP
20
20
40
40
40
80
80
00
80
ENDCHAR

STARTCHAR quotedbl
ENCODING 34
SWIDTH 291 0
DWIDTH 4 0
BBX 4 4 0 5
BITMAP
50
50
A0
A0
ENDCHAR

STARTCHAR numbersign
ENCODING 35
SWIDTH 456 0
DWIDTH 6 0
BBX 7 10 0 0
BITMAP
14
14
14
7E
28
28
FC
50
50
50
ENDCHAR

STARTCHAR dollar
ENCODING 36
SWIDTH 456 0
DWIDTH 6 0
BBX 6 11 0 -1
BITMAP
10
38
54
50
60
30
28
A8
A8
70
20
ENDCHAR

STARTCHAR percent
ENCODING 37
SWIDTH 729 0
DWIDTH 9 0
BBX 8 10 1 -1
BITMAP
32
52
94
A8
C8
13
25
29
4A
0C
ENDCHAR

STARTCHAR ampersand
ENCODING 38
SWIDTH 547 0
DWIDTH 7 0
BBX 6 9 1 0
BITMAP
18
28
28
30
50
94
88
88
74
ENDCHAR

STARTCHAR quoteright
ENCODING 39
SWIDTH 182 0
DWIDTH 2 0
BBX 2 3 1 6
BITMAP
C0
40
80
ENDCHAR

STARTCHAR parenleft
ENCODING 40
SWIDTH 273 0
DWIDTH 4 0
BBX 4 11 1 -2
BITMAP
10
20
40
40
80
80
80
80
80
40
40
ENDCHAR

STARTCHAR parenright
ENCODING 41
SWIDTH 273 0
DWIDTH 4 0
BBX 4 12 0 -2
BITMAP
20
20
10
10
10
10
10
10
20
20
40
80
ENDCHAR

STARTCHAR asterisk
ENCODING 42
SWIDTH 319 0
DWIDTH 4 0
BBX 4 4 0 5
BITMAP
40
F0
60
90
ENDCHAR

STARTCHAR plus
ENCODING 43
SWIDTH 479 0
DWIDTH 6 0
BBX 5 5 1 2
BITMAP
20
20
F8
20
20
ENDCHAR

STARTCHAR comma
ENCODING 44
SWIDTH 228 0
DWIDTH 3 0
BBX 2 3 1 -2
BITMAP
C0
40
80
ENDCHAR

STARTCHAR minus
ENCODING 45
SWIDTH 479 0
DWIDTH 6 0
BBX 5 1 1 4
BITMAP
F8
ENDCHAR

STARTCHAR period
ENCODING 46
SWIDTH 228 0
DWIDTH 3 0
BBX 1 1 1 0
BITMAP
80
ENDCHAR

STARTCHAR slash
ENCODING 47
SWIDTH 228 0
DWIDTH 3 0
BBX 5 10 -1 -1
BITMAP
08
08
10
10
20
20
40
40
80
80
ENDCHAR

STARTCHAR zero
ENCODING 48
SWIDTH 456 0
DWIDTH 6 0
BBX 5 9 1 0
BITMAP
30
48
48
48
88
90
90
90
60
ENDCHAR

STARTCHAR one
ENCODING 49
SWIDTH 456 0
DWIDTH 6 0
BBX 4 9 2 0
BITMAP
10
30
D0
20
20
20
40
40
40
ENDCHAR

STARTCHAR two
ENCODING 50
SWIDTH 456 0
DWIDTH 6 0
BBX 6 9 0 0
BITMAP
18
24
44
04
08
10
20
40
F8
ENDCHAR

STARTCHAR three
ENCODING 51
SWIDTH 456 0
DWIDTH 6 0
BBX 6 9 0 0
BITMAP
38
44
04
08
30
08
88
88
70
ENDCHAR

STARTCHAR four
ENCODING 52
SWIDTH 456 0
DWIDTH 6 0
BBX 6 9 0 0
BITMAP
04
0C
14
28
48
88
FC
10
10
ENDCHAR

STARTCHAR five
ENCODING 53
SWIDTH 456 0
DWIDTH 6 0
BBX 6 9 1 0
BITMAP
3C
20
40
70
48
08
88
90
60
ENDCHAR

STARTCHAR six
ENCODING 54
SWIDTH 456 0
DWIDTH 6 0
BBX 6 9 1 0
BITMAP
38
44
40
B0
C8
88
88
90
60
ENDCHAR

STARTCHAR seven
ENCODING 55
SWIDTH 456 0
DWIDTH 6 0
BBX 5 9 1 0
BITMAP
F8
08
10
10
20
20
40
40
40
ENDCHAR

STARTCHAR eight
ENCODING 56
SWIDTH 456 0
DWIDTH 6 0
BBX 5 9 1 0
BITMAP
30
48
48
48
70
90
90
90
60
ENDCHAR

STARTCHAR nine
ENCODING 57
SWIDTH 456 0
DWIDTH 6 0
BBX 6 9 0 0
BITMAP
18
24
44
44
4C
34
08
88
70
ENDCHAR

STARTCHAR colon
ENCODING 58
SWIDTH 228 0
DWIDTH 3 0
BBX 2 7 1 0
BITMAP
40
00
00
00
00
00
80
ENDCHAR

STARTCHAR semicolon
ENCODING 59
SWIDTH 228 0
DWIDTH 3 0
BBX 3 9 0 -2
BITMAP
20
00
00
00
00
00
C0
40
80
ENDCHAR

STARTCHAR less
ENCODING 60
SWIDTH 479 0
DWIDTH 6 0
BBX 5 5 1 2
BITMAP
18
60
80
60
18
ENDCHAR

STARTCHAR equal
ENCODING 61
SWIDTH 479 0
DWIDTH 6 0
BBX 5 4 1 2
BITMAP
F8
00
00
F8
ENDCHAR

STARTCHAR greater
ENCODING 62
SWIDTH 479 0
DWIDTH 6 0
BBX 5 5 1 1
BITMAP
C0
30
08
30
C0
ENDCHAR

STARTCHAR question
ENCODING 63
SWIDTH 456 0
DWIDTH 6 0
BBX 5 9 1 0
BITMAP
70
88
88
08
10
20
40
00
80
ENDCHAR

STARTCHAR at
ENCODING 64
SWIDTH 832 0
DWIDTH 11 0
BBX 10 12 1 -3
BITMAP
1F00
2080
4D40
9240
A240
A240
A240
A680
9B00
4040
2080
1F00
ENDCHAR

STARTCHAR A
ENCODING 65
SWIDTH 547 0
DWIDTH 7 0
BBX 7 9 -1 0
BITMAP
02
06
0A
12
12
3E
42
42
82
ENDCHAR

STARTCHAR B
ENCODING 66
SWIDTH 547 0
DWIDTH 7 0
BBX 6 9 1 0
BITMAP
38
24
24
44
78
48
88
88
F0
ENDCHAR

STARTCHAR C
ENCODING 67
SWIDTH 592 0
DWIDTH 7 0
BBX 7 9 1 0
BITMAP
1C
22
42
40
80
80
84
88
70
ENDCHAR

STARTCHAR D
ENCODING 68
SWIDTH 592 0
DWIDTH 8 0
BBX 7 9 1 0
BITMAP
3C
22
22
42
42
44
84
88
F0
ENDCHAR

STARTCHAR E
ENCODING 69
SWIDTH 547 0
DWIDTH 6 0
BBX 6 9 1 0
BITMAP
3C
20
20
40
78
40
80
80
F8
ENDCHAR

STARTCHAR F
ENCODING 70
SWIDTH 501 0
DWIDTH 7 0
BBX 7 9 1 0
BITMAP
3E
20
20
40
7C
40
80
80
80
ENDCHAR

STARTCHAR G
ENCODING 71
SWIDTH 638 0
DWIDTH 8 0
BBX 7 9 1 0
BITMAP
1C
22
42
40
80
9C
84
88
70
ENDCHAR

STARTCHAR H
ENCODING 72
SWIDTH 592 0
DWIDTH 8 0
BBX 7 9 1 0
BITMAP
22
22
22
44
7C
44
88
88
88
ENDCHAR

STARTCHAR I
ENCODING 73
SWIDTH 228 0
DWIDTH 4 0
BBX 3 9 1 0
BITMAP
20
20
20
40
40
40
80
80
80
ENDCHAR

STARTCHAR J
ENCODING 74
SWIDTH 410 0
DWIDTH 6 0
BBX 6 9 0 0
BITMAP
04
04
04
08
08
08
90
90
60
ENDCHAR

STARTCHAR K
ENCODING 75
SWIDTH 547 0
DWIDTH 7 0
BBX 7 9 1 0
BITMAP
22
24
28
50
60
60
90
88
84
ENDCHAR

STARTCHAR L
ENCODING 76
SWIDTH 456 0
DWIDTH 6 0
BBX 5 9 1 0
BITMAP
20
20
20
40
40
40
80
80
F8
ENDCHAR

STARTCHAR M
ENCODING 77
SWIDTH 683 0
DWIDTH 11 0
BBX 10 9 1 0
BITMAP
20C0
20C0
2140
5280
5280
5480
9500
8900
8900
ENDCHAR

STARTCHAR N
ENCODING 78
SWIDTH 592 0
DWIDTH 8 0
BBX 8 9 1 0
BITMAP
21
21
21
52
52
4A
8C
84
84
ENDCHAR

STARTCHAR O
ENCODING 79
SWIDTH 638 0
DWIDTH 8 0
BBX 7 9 1 0
BITMAP
1C
22
42
42
82
84
84
88
70
ENDCHAR

STARTCHAR P
ENCODING 80
SWIDTH 547 0
DWIDTH 7 0
BBX 7 9 1 0
BITMAP
3C
22
22
44
78
40
80
80
80
ENDCHAR

STARTCHAR Q
ENCODING 81
SWIDTH 638 0
DWIDTH 8 0
BBX 7 9 1 0
BITMAP
1C
22
42
42
82
84
94
88
76
ENDCHAR

STARTCHAR R
ENCODING 82
SWIDTH 592 0
DWIDTH 8 0
BBX 7 9 1 0
BITMAP
3C
22
22
44
78
48
88
84
84
ENDCHAR

STARTCHAR S
ENCODING 83
SWIDTH 547 0
DWIDTH 7 0
BBX 6 9 1 0
BITMAP
18
24
40
40
30
08
08
90
60
ENDCHAR

STARTCHAR T
ENCODING 84
SWIDTH 501 0
DWIDTH 6 0
BBX 7 9 1 0
BITMAP
FE
10
10
20
20
20
40
40
40
ENDCHAR

STARTCHAR U
ENCODING 85
SWIDTH 592 0
DWIDTH 8 0
BBX 8 9 1 0
BITMAP
21
21
42
42
42
84
84
88
70
ENDCHAR

STARTCHAR V
ENCODING 86
SWIDTH 547 0
DWIDTH 7 0
BBX 7 9 2 0
BITMAP
82
84
84
88
90
90
A0
40
40
ENDCHAR

STARTCHAR W
ENCODING 87
SWIDTH 774 0
DWIDTH 10 0
BBX 10 9 1 0
BITMAP
8440
8C40
9480
9480
A500
A500
C600
C600
8400
ENDCHAR

STARTCHAR X
ENCODING 88
SWIDTH 547 0
DWIDTH 7 0
BBX 8 9 0 0
BITMAP
41
22
24
18
18
18
24
44
82
ENDCHAR

STARTCHAR Y
ENCODING 89
SWIDTH 547 0
DWIDTH 7 0
BBX 7 9 1 0
BITMAP
82
44
44
28
10
10
20
20
20
ENDCHAR

STARTCHAR Z
ENCODING 90
SWIDTH 501 0
DWIDTH 6 0
BBX 7 9 0 0
BITMAP
7E
04
08
08
10
20
20
40
FC
ENDCHAR

STARTCHAR bracketleft
ENCODING 91
SWIDTH 228 0
DWIDTH 3 0
BBX 5 12 0 -3
BITMAP
18
10
10
20
20
20
40
40
40
80
80
C0
ENDCHAR

STARTCHAR backslash
ENCODING 92
SWIDTH 228 0
DWIDTH 3 0
BBX 5 10 -1 -1
BITMAP
80
80
40
40
20
20
10
10
08
08
ENDCHAR

STARTCHAR bracketright
ENCODING 93
SWIDTH 228 0
DWIDTH 3 0
BBX 5 12 -1 -3
BITMAP
18
08
08
10
10
10
20
20
20
40
40
C0
ENDCHAR

STARTCHAR asciicircum
ENCODING 94
SWIDTH 385 0
DWIDTH 5 0
BBX 4 5 1 4
BITMAP
20
20
50
90
90
ENDCHAR

STARTCHAR underscore
ENCODING 95
SWIDTH 456 0
DWIDTH 6 0
BBX 6 1 0 -2
BITMAP
FC
ENDCHAR

STARTCHAR quoteleft
ENCODING 96
SWIDTH 182 0
DWIDTH 2 0
BBX 2 3 1 6
BITMAP
40
80
C0
ENDCHAR

STARTCHAR a
ENCODING 97
SWIDTH 456 0
DWIDTH 6 0
BBX 5 7 1 0
BITMAP
38
48
08
70
90
90
68
ENDCHAR

STARTCHAR b
ENCODING 98
SWIDTH 456 0
DWIDTH 6 0
BBX 5 9 1 0
BITMAP
20
20
38
48
48
48
90
90
E0
ENDCHAR

STARTCHAR c
ENCODING 99
SWIDTH 410 0
DWIDTH 5 0
BBX 5 7 1 0
BITMAP
30
48
40
80
90
90
60
ENDCHAR

STARTCHAR d
ENCODING 100
SWIDTH 456 0
DWIDTH 6 0
BBX 6 9 1 0
BITMAP
04
04
34
48
48
88
90
90
70
ENDCHAR

STARTCHAR e
ENCODING 101
SWIDTH 456 0
DWIDTH 6 0
BBX 5 7 1 0
BITMAP
30
48
88
F8
80
90
60
ENDCHAR

STARTCHAR f
ENCODING 102
SWIDTH 228 0
DWIDTH 3 0
BBX 4 9 1 0
BITMAP
10
20
F0
40
40
40
80
80
80
ENDCHAR

STARTCHAR g
ENCODING 103
SWIDTH 456 0
DWIDTH 6 0
BBX 7 9 0 -2
BITMAP
1A
24
24
44
48
48
38
88
70
ENDCHAR

STARTCHAR h
ENCODING 104
SWIDTH 456 0
DWIDTH 6 0
BBX 5 9 1 0
BITMAP
20
20
38
48
48
48
90
90
90
ENDCHAR

STARTCHAR i
ENCODING 105
SWIDTH 182 0
DWIDTH 3 0
BBX 2 9 1 0
BITMAP
40
00
40
40
40
80
80
80
80
ENDCHAR

STARTCHAR j
ENCODING 106
SWIDTH 182 0
DWIDTH 3 0
BBX 4 11 -1 -2
BITMAP
10
00
10
10
10
10
20
20
20
20
C0
ENDCHAR

STARTCHAR k
ENCODING 107
SWIDTH 410 0
DWIDTH 5 0
BBX 5 9 1 0
BITMAP
20
20
28
50
60
60
A0
90
90
ENDCHAR

STARTCHAR l
ENCODING 108
SWIDTH 182 0
DWIDTH 3 0
BBX 3 9 1 0
BITMAP
20
20
20
40
40
40
80
80
80
ENDCHAR

STARTCHAR m
ENCODING 109
SWIDTH 683 0
DWIDTH 9 0
BBX 8 7 1 0
BITMAP
5B
6D
49
91
92
92
92
ENDCHAR

STARTCHAR n
ENCODING 110
SWIDTH 456 0
DWIDTH 6 0
BBX 5 7 1 0
BITMAP
58
68
48
88
90
90
90
ENDCHAR

STARTCHAR o
ENCODING 111
SWIDTH 456 0
DWIDTH 6 0
BBX 5 7 1 0
BITMAP
30
48
88
88
88
90
60
ENDCHAR

STARTCHAR p
ENCODING 112
SWIDTH 456 0
DWIDTH 6 0
BBX 6 9 0 -2
BITMAP
2C
34
24
44
48
48
B0
80
80
ENDCHAR

STARTCHAR q
ENCODING 113
SWIDTH 456 0
DWIDTH 6 0
BBX 6 9 1 -2
BITMAP
34
48
48
88
88
90
70
10
10
ENDCHAR

STARTCHAR r
ENCODING 114
SWIDTH 273 0
DWIDTH 4 0
BBX 4 7 1 0
BITMAP
50
60
40
80
80
80
80
ENDCHAR

STARTCHAR s
ENCODING 115
SWIDTH 410 0
DWIDTH 5 0
BBX 5 7 1 0
BITMAP
30
48
40
20
90
90
60
ENDCHAR

STARTCHAR t
ENCODING 116
SWIDTH 228 0
DWIDTH 3 0
BBX 3 9 1 0
BITMAP
40
40
E0
40
80
80
80
A0
40
ENDCHAR

STARTCHAR u
ENCODING 117
SWIDTH 456 0
DWIDTH 6 0
BBX 5 7 1 0
BITMAP
48
48
48
88
90
B0
D0
ENDCHAR

STARTCHAR v
ENCODING 118
SWIDTH 410 0
DWIDTH 4 0
BBX 4 7 1 0
BITMAP
90
90
A0
A0
C0
C0
80
ENDCHAR

STARTCHAR w
ENCODING 119
SWIDTH 592 0
DWIDTH 7 0
BBX 7 7 1 0
BITMAP
92
92
B4
B4
C8
C8
88
ENDCHAR

STARTCHAR x
ENCODING 120
SWIDTH 410 0
DWIDTH 5 0
BBX 6 7 0 0
BITMAP
44
28
30
20
30
50
88
ENDCHAR

STARTCHAR y
ENCODING 121
SWIDTH 410 0
DWIDTH 5 0
BBX 6 9 0 -2
BITMAP
44
44
48
28
30
10
20
20
C0
ENDCHAR

STARTCHAR z
ENCODING 122
SWIDTH 410 0
DWIDTH 4 0
BBX 5 7 0 0
BITMAP
78
08
10
20
40
80
F0
ENDCHAR

STARTCHAR braceleft
ENCODING 123
SWIDTH 274 0
DWIDTH 4 0
BBX 4 12 1 -3
BITMAP
10
20
20
20
40
80
40
40
80
80
80
40
ENDCHAR

STARTCHAR bar
ENCODING 124
SWIDTH 213 0
DWIDTH 3 0
BBX 1 13 1 -4
BITMAP
80
80
80
80
80
80
80
80
80
80
80
80
80
ENDCHAR

STARTCHAR braceright
ENCODING 125
SWIDTH 274 0
DWIDTH 4 0
BBX 4 12 0 -3
BITMAP
20
10
10
10
20
20
10
20
40
40
40
80
ENDCHAR

STARTCHAR asciitilde
ENCODING 126
SWIDTH 479 0
DWIDTH 6 0
BBX 5 2 1 4
BITMAP
E8
B8
ENDCHAR

STARTCHAR space
ENCODING 160
SWIDTH 228 0
DWIDTH 4 0
BBX 0 0 0 0
BITMAP
ENDCHAR

STARTCHAR exclamdown
ENCODING 161
SWIDTH 273 0
DWIDTH 4 0
BBX 2 9 1 -3
BITMAP
40
00
40
40
40
80
80
80
80
ENDCHAR

STARTCHAR cent
ENCODING 162
SWIDTH 456 0
DWIDTH 6 0
BBX 5 12 1 -3
BITMAP
08
08
30
58
A0
A0
A8
D0
60
40
80
80
ENDCHAR

STARTCHAR sterling
ENCODING 163
SWIDTH 456 0
DWIDTH 6 0
BBX 6 9 0 0
BITMAP
18
24
40
20
F8
20
40
E8
90
ENDCHAR

STARTCHAR currency
ENCODING 164
SWIDTH 456 0
DWIDTH 6 0
BBX 5 5 1 2
BITMAP
A8
50
88
50
A8
ENDCHAR

STARTCHAR yen
ENCODING 165
SWIDTH 456 0
DWIDTH 6 0
BBX 6 9 0 0
BITMAP
44
44
44
28
7C
10
F8
20
20
ENDCHAR

STARTCHAR brokenbar
ENCODING 166
SWIDTH 213 0
DWIDTH 3 0
BBX 1 13 1 -4
BITMAP
80
80
80
80
80
00
00
00
80
80
80
80
80
ENDCHAR

STARTCHAR section
ENCODING 167
SWIDTH 456 0
DWIDTH 6 0
BBX 6 12 0 -3
BITMAP
1C
24
20
30
48
48
48
30
10
10
90
60
ENDCHAR

STARTCHAR dieresis
ENCODING 168
SWIDTH 273 0
DWIDTH 4 0
BBX 3 1 1 8
BITMAP
A0
ENDCHAR

STARTCHAR copyright
ENCODING 169
SWIDTH 604 0
DWIDTH 8 0
BBX 8 9 0 0
BITMAP
3C
42
99
A5
A1
A5
99
42
3C
ENDCHAR

STARTCHAR ordfeminine
ENCODING 170
SWIDTH 303 0
DWIDTH 4 0
BBX 4 5 0 4
BITMAP
60
10
70
A0
E0
ENDCHAR

STARTCHAR guillemotleft
ENCODING 171
SWIDTH 456 0
DWIDTH 6 0
BBX 5 6 1 0
BITMAP
28
50
A0
A0
50
50
ENDCHAR

STARTCHAR logicalnot
ENCODING 172
SWIDTH 479 0
DWIDTH 6 0
BBX 5 4 1 3
BITMAP
F8
08
08
08
ENDCHAR

STARTCHAR hyphen
ENCODING 173
SWIDTH 273 0
DWIDTH 4 0
BBX 3 1 1 7
BITMAP
E0
ENDCHAR

STARTCHAR registered
ENCODING 174
SWIDTH 604 0
DWIDTH 8 0
BBX 8 9 0 0
BITMAP
3C
42
B9
A5
B9
A5
A5
42
3C
ENDCHAR

STARTCHAR macron
ENCODING 175
SWIDTH 273 0
DWIDTH 4 0
BBX 3 1 1 8
BITMAP
E0
ENDCHAR

STARTCHAR degree
ENCODING 176
SWIDTH 328 0
DWIDTH 4 0
BBX 3 4 1 5
BITMAP
60
A0
A0
C0
ENDCHAR

STARTCHAR plusminus
ENCODING 177
SWIDTH 479 0
DWIDTH 6 0
BBX 5 7 1 2
BITMAP
20
20
F8
20
20
00
F8
ENDCHAR

STARTCHAR twosuperior
ENCODING 178
SWIDTH 273 0
DWIDTH 4 0
BBX 4 5 0 4
BITMAP
20
50
20
40
F0
ENDCHAR

STARTCHAR threesuperior
ENCODING 179
SWIDTH 273 0
DWIDTH 4 0
BBX 3 5 1 4
BITMAP
40
20
40
20
C0
ENDCHAR

STARTCHAR acute
ENCODING 180
SWIDTH 273 0
DWIDTH 4 0
BBX 2 2 1 7
BITMAP
40
80
ENDCHAR

STARTCHAR mu
ENCODING 181
SWIDTH 456 0
DWIDTH 6 0
BBX 6 10 0 -3
BITMAP
24
24
24
48
48
48
B0
80
80
80
ENDCHAR

STARTCHAR paragraph
ENCODING 182
SWIDTH 440 0
DWIDTH 6 0
BBX 6 12 0 -3
BITMAP
7C
E8
E8
E8
68
28
28
28
28
28
28
28
ENDCHAR

STARTCHAR periodcentered
ENCODING 183
SWIDTH 228 0
DWIDTH 3 0
BBX 1 1 1 4
BITMAP
80
ENDCHAR

STARTCHAR cedilla
ENCODING 184
SWIDTH 273 0
DWIDTH 4 0
BBX 3 3 1 -3
BITMAP
C0
60
C0
ENDCHAR

STARTCHAR onesuperior
ENCODING 185
SWIDTH 273 0
DWIDTH 4 0
BBX 2 5 1 4
BITMAP
40
C0
40
80
80
ENDCHAR

STARTCHAR ordmasculine
ENCODING 186
SWIDTH 299 0
DWIDTH 4 0
BBX 4 5 0 4
BITMAP
30
50
90
A0
C0
ENDCHAR

STARTCHAR guillemotright
ENCODING 187
SWIDTH 456 0
DWIDTH 6 0
BBX 5 6 1 0
BITMAP
50
50
28
28
50
A0
ENDCHAR

STARTCHAR onequarter
ENCODING 188
SWIDTH 684 0
DWIDTH 9 0
BBX 8 10 1 -1
BITMAP
21
62
24
44
48
12
26
2A
4F
84
ENDCHAR

STARTCHAR onehalf
ENCODING 189
SWIDTH 684 0
DWIDTH 9 0
BBX 8 10 1 -1
BITMAP
21
62
24
44
48
12
25
22
44
8F
ENDCHAR

STARTCHAR threequarters
ENCODING 190
SWIDTH 684 0
DWIDTH 9 0
BBX 8 10 1 -1
BITMAP
41
22
44
24
C8
12
26
2A
4F
84
ENDCHAR

STARTCHAR questiondown
ENCODING 191
SWIDTH 501 0
DWIDTH 7 0
BBX 5 9 1 -2
BITMAP
08
00
10
20
40
80
88
88
70
ENDCHAR

STARTCHAR Agrave
ENCODING 192
SWIDTH 547 0
DWIDTH 7 0
BBX 7 12 -1 0
BITMAP
04
02
00
02
06
0A
12
12
3E
42
42
82
ENDCHAR

STARTCHAR Aacute
ENCODING 193
SWIDTH 547 0
DWIDTH 7 0
BBX 8 12 -1 0
BITMAP
01
02
00
02
06
0A
12
12
3E
42
42
82
ENDCHAR

STARTCHAR Acircumflex
ENCODING 194
SWIDTH 547 0
DWIDTH 7 0
BBX 8 12 -1 0
BITMAP
02
05
00
02
06
0A
12
12
3E
42
42
82
ENDCHAR

STARTCHAR Atilde
ENCODING 195
SWIDTH 547 0
DWIDTH 7 0
BBX 10 12 -1 0
BITMAP
0340
0580
0000
0200
0600
0A00
1200
1200
3E00
4200
4200
8200
ENDCHAR

STARTCHAR Adieresis
ENCODING 196
SWIDTH 547 0
DWIDTH 7 0
BBX 8 11 -1 0
BITMAP
05
00
02
06
0A
12
12
3E
42
42
82
ENDCHAR

STARTCHAR Aring
ENCODING 197
SWIDTH 547 0
DWIDTH 7 0
BBX 8 12 -1 0
BITMAP
02
05
05
02
06
0A
12
12
3E
42
42
82
ENDCHAR

STARTCHAR AE
ENCODING 198
SWIDTH 820 0
DWIDTH 11 0
BBX 11 9 0 0
BITMAP
0FE0
0900
1100
2200
23C0
7E00
4400
8400
87C0
ENDCHAR

STARTCHAR Ccedilla
ENCODING 199
SWIDTH 592 0
DWIDTH 7 0
BBX 7 12 1 -3
BITMAP
1C
22
42
40
80
80
84
88
70
20
10
60
ENDCHAR

STARTCHAR Egrave
ENCODING 200
SWIDTH 547 0
DWIDTH 6 0
BBX 6 12 1 0
BITMAP
10
08
00
3C
20
20
40
78
40
80
80
F8
ENDCHAR

STARTCHAR Eacute
ENCODING 201
SWIDTH 547 0
DWIDTH 6 0
BBX 6 12 1 0
BITMAP
04
08
00
3C
20
20
40
78
40
80
80
F8
ENDCHAR

STARTCHAR Ecircumflex
ENCODING 202
SWIDTH 547 0
DWIDTH 6 0
BBX 6 12 1 0
BITMAP
08
14
00
3C
20
20
40
78
40
80
80
F8
ENDCHAR

STARTCHAR Edieresis
ENCODING 203
SWIDTH 547 0
DWIDTH 6 0
BBX 6 11 1 0
BITMAP
14
00
3C
20
20
40
78
40
80
80
F8
ENDCHAR

STARTCHAR Igrave
ENCODING 204
SWIDTH 228 0
DWIDTH 4 0
BBX 3 12 1 0
BITMAP
40
20
00
20
20
20
40
40
40
80
80
80
ENDCHAR

STARTCHAR Iacute
ENCODING 205
SWIDTH 228 0
DWIDTH 4 0
BBX 4 12 1 0
BITMAP
10
20
00
20
20
20
40
40
40
80
80
80
ENDCHAR

STARTCHAR Icircumflex
ENCODING 206
SWIDTH 228 0
DWIDTH 4 0
BBX 4 12 1 0
BITMAP
20
50
00
20
20
20
40
40
40
80
80
80
ENDCHAR

STARTCHAR Idieresis
ENCODING 207
SWIDTH 228 0
DWIDTH 4 0
BBX 4 11 1 0
BITMAP
50
00
20
20
20
40
40
40
80
80
80
ENDCHAR

STARTCHAR Gbreve
ENCODING 208
SWIDTH 638 0
DWIDTH 8 0
BBX 7 12 1 0
BITMAP
14
08
00
1C
22
42
40
80
9C
84
88
70
ENDCHAR

STARTCHAR Ntilde
ENCODING 209
SWIDTH 592 0
DWIDTH 8 0
BBX 8 12 1 0
BITMAP
0D
16
00
21
21
21
52
52
4A
8C
84
84
ENDCHAR

STARTCHAR Ograve
ENCODING 210
SWIDTH 638 0
DWIDTH 8 0
BBX 7 12 1 0
BITMAP
10
08
00
1C
22
42
42
82
84
84
88
70
ENDCHAR

STARTCHAR Oacute
ENCODING 211
SWIDTH 638 0
DWIDTH 8 0
BBX 7 12 1 0
BITMAP
04
08
00
1C
22
42
42
82
84
84
88
70
ENDCHAR

STARTCHAR Ocircumflex
ENCODING 212
SWIDTH 638 0
DWIDTH 8 0
BBX 7 12 1 0
BITMAP
04
0A
00
1C
22
42
42
82
84
84
88
70
ENDCHAR

STARTCHAR Otilde
ENCODING 213
SWIDTH 638 0
DWIDTH 8 0
BBX 8 12 1 0
BITMAP
0D
16
00
1C
22
42
42
82
84
84
88
70
ENDCHAR

STARTCHAR Odieresis
ENCODING 214
SWIDTH 638 0
DWIDTH 8 0
BBX 7 11 1 0
BITMAP
14
00
1C
22
42
42
82
84
84
88
70
ENDCHAR

STARTCHAR multiply
ENCODING 215
SWIDTH 479 0
DWIDTH 6 0
BBX 5 5 1 2
BITMAP
88
50
20
50
88
ENDCHAR

STARTCHAR Oslash
ENCODING 216
SWIDTH 638 0
DWIDTH 8 0
BBX 7 10 1 0
BITMAP
02
1E
26
4A
4A
92
A4
A4
C8
F0
ENDCHAR

STARTCHAR Ugrave
ENCODING 217
SWIDTH 592 0
DWIDTH 8 0
BBX 8 12 1 0
BITMAP
08
04
00
21
21
42
42
42
84
84
88
70
ENDCHAR

STARTCHAR Uacute
ENCODING 218
SWIDTH 592 0
DWIDTH 8 0
BBX 8 12 1 0
BITMAP
02
04
00
21
21
42
42
42
84
84
88
70
ENDCHAR

STARTCHAR Ucircumflex
ENCODING 219
SWIDTH 592 0
DWIDTH 8 0
BBX 8 12 1 0
BITMAP
04
0A
00
21
21
42
42
42
84
84
88
70
ENDCHAR

STARTCHAR Udieresis
ENCODING 220
SWIDTH 592 0
DWIDTH 8 0
BBX 8 11 1 0
BITMAP
09
00
21
21
42
42
42
84
84
88
70
ENDCHAR

STARTCHAR Idotaccent
ENCODING 221
SWIDTH 228 0
DWIDTH 8 0
BBX 8 11 1 0
BITMAP
1F
00
21
21
42
42
42
84
84
88
70
ENDCHAR

STARTCHAR Scedilla
ENCODING 222
SWIDTH 547 0
DWIDTH 7 0
BBX 6 12 1 -3
BITMAP
18
24
40
40
30
08
08
90
60
20
10
60
ENDCHAR

STARTCHAR germandbls
ENCODING 223
SWIDTH 501 0
DWIDTH 7 0
BBX 6 9 1 0
BITMAP
18
24
24
48
50
48
88
A8
B0
ENDCHAR

STARTCHAR agrave
ENCODING 224
SWIDTH 456 0
DWIDTH 6 0
BBX 5 10 1 0
BITMAP
20
10
00
38
48
08
70
90
90
68
ENDCHAR

STARTCHAR aacute
ENCODING 225
SWIDTH 456 0
DWIDTH 6 0
BBX 5 10 1 0
BITMAP
08
10
00
38
48
08
70
90
90
68
ENDCHAR

STARTCHAR acircumflex
ENCODING 226
SWIDTH 456 0
DWIDTH 6 0
BBX 6 10 1 0
BITMAP
08
14
00
38
48
08
70
90
90
68
ENDCHAR

STARTCHAR atilde
ENCODING 227
SWIDTH 456 0
DWIDTH 6 0
BBX 7 10 1 0
BITMAP
1A
2C
00
38
48
08
70
90
90
68
ENDCHAR

STARTCHAR adieresis
ENCODING 228
SWIDTH 456 0
DWIDTH 6 0
BBX 5 9 1 0
BITMAP
28
00
38
48
08
70
90
90
68
ENDCHAR

STARTCHAR aring
ENCODING 229
SWIDTH 456 0
DWIDTH 6 0
BBX 5 11 1 0
BITMAP
10
28
10
00
38
48
08
70
90
90
68
ENDCHAR

STARTCHAR ae
ENCODING 230
SWIDTH 729 0
DWIDTH 9 0
BBX 9 7 0 0
BITMAP
3B00
4C80
0880
7F80
9000
B900
5600
ENDCHAR

STARTCHAR ccedilla
ENCODING 231
SWIDTH 410 0
DWIDTH 5 0
BBX 5 10 1 -3
BITMAP
30
48
40
80
90
90
60
40
20
C0
ENDCHAR

STARTCHAR egrave
ENCODING 232
SWIDTH 456 0
DWIDTH 6 0
BBX 5 10 1 0
BITMAP
20
10
00
30
48
88
F8
80
90
60
ENDCHAR

STARTCHAR eacute
ENCODING 233
SWIDTH 456 0
DWIDTH 6 0
BBX 5 10 1 0
BITMAP
08
10
00
30
48
88
F8
80
90
60
ENDCHAR

STARTCHAR ecircumflex
ENCODING 234
SWIDTH 456 0
DWIDTH 6 0
BBX 5 10 1 0
BITMAP
10
28
00
30
48
88
F8
80
90
60
ENDCHAR

STARTCHAR edieresis
ENCODING 235
SWIDTH 456 0
DWIDTH 6 0
BBX 5 9 1 0
BITMAP
28
00
30
48
88
F8
80
90
60
ENDCHAR

STARTCHAR igrave
ENCODING 236
SWIDTH 228 0
DWIDTH 3 0
BBX 2 10 1 0
BITMAP
80
40
00
40
40
40
80
80
80
80
ENDCHAR

STARTCHAR iacute
ENCODING 237
SWIDTH 228 0
DWIDTH 3 0
BBX 3 10 1 0
BITMAP
20
40
00
40
40
40
80
80
80
80
ENDCHAR

STARTCHAR icircumflex
ENCODING 238
SWIDTH 228 0
DWIDTH 3 0
BBX 3 10 1 0
BITMAP
40
A0
00
40
40
40
80
80
80
80
ENDCHAR

STARTCHAR idieresis
ENCODING 239
SWIDTH 228 0
DWIDTH 3 0
BBX 3 9 1 0
BITMAP
A0
00
40
40
40
80
80
80
80
ENDCHAR

STARTCHAR gbreve
ENCODING 240
SWIDTH 456 0
DWIDTH 6 0
BBX 7 12 0 -2
BITMAP
0A
04
00
1A
24
24
44
48
48
38
88
70
ENDCHAR

STARTCHAR ntilde
ENCODING 241
SWIDTH 456 0
DWIDTH 6 0
BBX 7 10 1 0
BITMAP
1A
2C
00
58
68
48
88
90
90
90
ENDCHAR

STARTCHAR ograve
ENCODING 242
SWIDTH 456 0
DWIDTH 6 0
BBX 5 10 1 0
BITMAP
20
10
00
30
48
88
88
88
90
60
ENDCHAR

STARTCHAR oacute
ENCODING 243
SWIDTH 456 0
DWIDTH 6 0
BBX 5 10 1 0
BITMAP
08
10
00
30
48
88
88
88
90
60
ENDCHAR

STARTCHAR ocircumflex
ENCODING 244
SWIDTH 456 0
DWIDTH 6 0
BBX 5 10 1 0
BITMAP
10
28
00
30
48
88
88
88
90
60
ENDCHAR

STARTCHAR otilde
ENCODING 245
SWIDTH 456 0
DWIDTH 6 0
BBX 7 10 1 0
BITMAP
1A
2C
00
30
48
88
88
88
90
60
ENDCHAR

STARTCHAR odieresis
ENCODING 246
SWIDTH 456 0
DWIDTH 6 0
BBX 5 9 1 0
BITMAP
28
00
30
48
88
88
88
90
60
ENDCHAR

STARTCHAR divide
ENCODING 247
SWIDTH 479 0
DWIDTH 6 0
BBX 5 5 1 2
BITMAP
20
00
F8
00
20
ENDCHAR

STARTCHAR oslash
ENCODING 248
SWIDTH 501 0
DWIDTH 6 0
BBX 5 7 1 0
BITMAP
38
58
A8
A8
A8
D0
E0
ENDCHAR

STARTCHAR ugrave
ENCODING 249
SWIDTH 456 0
DWIDTH 6 0
BBX 5 10 1 0
BITMAP
20
10
00
48
48
48
88
90
B0
D0
ENDCHAR

STARTCHAR uacute
ENCODING 250
SWIDTH 456 0
DWIDTH 6 0
BBX 5 10 1 0
BITMAP
08
10
00
48
48
48
88
90
B0
D0
ENDCHAR

STARTCHAR ucircumflex
ENCODING 251
SWIDTH 456 0
DWIDTH 6 0
BBX 5 10 1 0
BITMAP
10
28
00
48
48
48
88
90
B0
D0
ENDCHAR

STARTCHAR udieresis
ENCODING 252
SWIDTH 456 0
DWIDTH 6 0
BBX 5 9 1 0
BITMAP
28
00
48
48
48
88
90
B0
D0
ENDCHAR

STARTCHAR dotlessi
ENCODING 253
SWIDTH 228 0
DWIDTH 3 0
BBX 2 7 1 0
BITMAP
40
40
40
80
80
80
80
ENDCHAR

STARTCHAR scedilla
ENCODING 254
SWIDTH 410 0
DWIDTH 5 0
BBX 5 10 1 -3
BITMAP
30
48
40
20
90
90
60
40
20
C0
ENDCHAR

STARTCHAR ydieresis
ENCODING 255
SWIDTH 410 0
DWIDTH 5 0
BBX 6 11 0 -2
BITMAP
28
00
44
44
48
28
30
10
20
20
C0
ENDCHAR
ENDFONT
